<svg width="143" height="33" viewBox="0 0 143 33" fill="none" xmlns="http://www.w3.org/2000/svg">
<path d="M101.828 15.4232C103.736 15.1382 105.477 14.8259 107.051 13.9493C108.007 13.4173 108.853 12.7336 109.398 11.7375C109.827 10.9532 109.979 10.1304 109.526 9.33177C109.147 8.66273 108.412 8.67126 107.785 8.76733C106.121 9.02252 104.467 9.34911 102.818 9.69054C102.616 9.73245 102.337 10.0242 102.315 10.2252C102.128 11.9108 101.992 13.6026 101.828 15.4232V15.4232ZM113.963 10.2435C113.87 12.8157 112.95 15.0037 110.975 16.6797C110.623 16.9788 110.635 17.1693 110.928 17.4869C113.092 19.8293 115.245 22.1822 117.397 24.5361C117.666 24.8299 117.927 25.1348 118.157 25.4594C118.799 26.3652 118.728 27.2655 118.02 28.1162C117.543 28.6887 117.079 29.2524 116.281 29.3547C115.377 29.4701 114.644 29.1305 114.029 28.4891C111.473 25.8237 108.904 23.1702 106.376 20.4777C105.847 19.914 105.408 19.7467 104.651 20.0447C103.673 20.4291 102.613 20.6 101.605 20.9156C101.427 20.9714 101.23 21.2748 101.207 21.4826C100.987 23.4486 100.796 25.4175 100.614 27.3871C100.53 28.2825 100.168 28.9734 99.2975 29.2825C98.4679 29.5776 97.5695 29.2172 96.8912 28.4688C96.3328 27.8528 96.1987 27.1607 96.2741 26.3655C96.4169 24.8581 96.5231 23.3469 96.6566 21.8385C96.8828 19.279 97.1092 16.7195 97.3543 14.1621C97.4547 13.1141 97.6226 12.0723 97.7165 11.0239C97.7351 10.8157 97.613 10.524 97.4569 10.3828C96.3561 9.39065 96.2017 8.33512 97.2419 7.26938C98.0203 6.47163 98.9838 5.85043 99.8988 5.1991C100.352 4.87631 100.866 4.94298 101.397 5.143C101.72 5.26485 102.154 5.30991 102.469 5.19549C104.775 4.35758 107.133 4.27561 109.516 4.66582C111.36 4.96783 114.083 6.92563 113.963 10.2436L113.963 10.2435Z" fill="white"/>
<path d="M70.3752 17.7079C71.5251 17.7575 72.4437 17.1972 73.3833 16.6246C74.6901 15.8282 75.074 14.6023 75.0699 13.1923C75.0689 12.9073 74.8639 12.5093 74.6296 12.3586C73.6514 11.7292 72.583 11.5442 71.4692 11.9949C69.747 12.6915 68.8674 14.1275 68.4069 15.8174C68.1048 16.9256 68.619 17.5148 69.7519 17.6687C69.9575 17.6969 70.1673 17.6958 70.3752 17.7079ZM77.7241 19.0307C76.681 19.7873 75.7767 20.6369 74.7168 21.1751C71.8045 22.6549 68.8679 22.7385 66.1638 20.6729C63.5972 18.7128 63.1733 15.3772 64.3331 12.6658C65.6875 9.50005 68.223 7.82091 71.5293 7.2534C72.8635 7.02436 74.1528 7.25628 75.3883 7.78011C75.8529 7.97725 76.0675 7.85132 76.3208 7.41475C76.5815 6.96511 76.9567 6.52195 77.3889 6.24942C78.0232 5.8491 78.7323 5.98542 79.3386 6.40956C79.9638 6.84678 80.2407 7.51573 80.0727 8.23865C79.6671 9.98308 79.971 11.6804 80.306 13.3738C80.7331 15.5297 81.4017 17.6133 82.328 19.6071C82.4427 19.8532 82.5978 20.081 82.7399 20.3136C83.3081 21.2456 83.0759 22.5377 82.2297 23.1476C81.2991 23.8169 80.0746 23.6541 79.429 22.6317C78.8844 21.7698 78.5159 20.7934 78.0766 19.8646C77.9432 19.5823 77.8329 19.2899 77.7241 19.0307Z" fill="white"/>
<path d="M51.7768 29.0707C50.269 28.9599 48.8535 28.7985 47.6575 27.8976C46.6978 27.1744 45.866 26.337 45.8638 25.0241C45.8618 23.9584 46.5602 23.3411 47.4376 22.9365C48.2257 22.5731 48.9318 22.7934 49.567 23.3704C50.4863 24.2057 51.6152 24.4472 52.7844 24.2505C53.8379 24.0734 54.9628 23.9357 55.6903 22.9652C56.5402 21.8319 56.6917 20.3171 55.6376 19.2842C54.8757 18.5381 54.1174 17.7738 53.2733 17.13C50.1065 14.7151 49.635 11.3586 51.4116 8.04906C52.0893 6.78636 53.2138 6.01244 54.5496 5.58793C56.006 5.12521 57.5018 5.05956 59.0144 5.27191C60.4637 5.47554 61.5564 6.34052 62.5435 7.3075C63.277 8.02652 63.198 9.26631 62.5488 10.0376C61.9618 10.735 60.8994 10.83 59.978 10.2676C58.8248 9.56342 56.9645 9.55618 56.1232 10.2395C55.4863 10.7567 55.1823 11.4714 55.2309 12.2385C55.2552 12.6209 55.6149 13.0643 55.9422 13.329C57.0139 14.1952 58.2504 14.8803 59.2208 15.8429C60.7471 17.358 61.696 19.2279 61.6973 21.4685C61.6982 23.1536 61.0152 24.5799 59.9583 25.8291C58.1886 27.922 55.8098 28.7141 53.1937 28.9634C52.6951 29.0108 52.1945 29.0392 51.7769 29.0706L51.7768 29.0707Z" fill="white"/>
<path d="M2.04512 6.01154C3.45774 6.16315 5.06072 7.50931 5.30399 8.82264C6.13994 13.337 6.97588 17.8517 7.81512 22.3661C8.06501 23.7118 8.34476 25.0523 8.57114 26.4021C8.67578 27.0252 8.96554 27.2498 9.5888 27.1965C11.9575 26.9939 14.3282 26.8115 16.6998 26.6471C17.3917 26.5987 18.1416 26.4664 18.7739 26.6654C20.1985 27.1144 20.5734 28.6658 19.7209 29.8997C19.1018 30.7954 18.3348 31.2863 17.2292 31.3406C15.0204 31.4497 12.8139 31.615 10.609 31.7892C9.68269 31.8624 8.7331 31.8098 7.86666 32.3045C7.60115 32.4561 7.16835 32.5335 6.90412 32.4225C5.92955 32.0128 4.93201 32.1494 3.93612 32.1592C3.28888 32.1654 2.69475 32.0464 2.21426 31.5552C1.47442 30.798 1.44272 29.7209 2.15436 28.9413C2.18256 28.9101 2.20838 28.8723 2.24412 28.8534C3.50028 28.1824 3.42586 27.1275 3.20886 25.9122C2.62061 22.6153 2.1618 19.2945 1.58319 15.9955C1.16848 13.6305 0.626809 11.289 0.175811 8.93048C0.0291836 8.16416 0.1036 7.37105 0.704165 6.81087C1.07689 6.4635 1.5933 6.27266 2.04522 6.01154H2.04512Z" fill="white"/>
<path d="M132.838 22.9917C135.3 23.0094 137.793 20.8287 136.735 17.9949C136.503 17.3741 136.216 16.7701 136.031 16.1354C135.891 15.6583 135.765 15.1292 135.831 14.6515C135.908 14.0847 135.729 13.7001 135.355 13.3677C135.033 13.0818 134.689 12.8102 134.322 12.5887C132.73 11.629 130.187 11.6659 129.418 13.7913C128.916 15.1789 128.412 16.5923 128.161 18.0391C127.922 19.4155 128.379 20.7505 129.44 21.7145C130.439 22.622 131.744 22.827 132.838 22.9917ZM132.288 7.09727C134.541 7.08392 136.508 7.88751 138.173 9.37675C142.156 12.9395 143.398 18.473 141.381 23.4331C139.956 26.939 136.517 29.3144 132.79 29.0926C130.629 28.9638 128.401 28.6459 126.531 27.4325C123.876 25.7099 122.614 23.1652 122.843 19.9488C122.944 18.5237 123.08 17.0979 123.278 15.6832C123.672 12.8593 124.937 10.4854 127.169 8.7218C128.65 7.5522 130.413 7.10283 132.288 7.09727H132.288Z" fill="white"/>
<path d="M36.45 30.4889C33.4225 30.4889 30.3951 30.4997 27.3679 30.482C26.5721 30.4771 25.7805 30.3945 25.1656 29.7621C24.3918 28.9667 24.2969 27.7723 25.1457 27.0701C26.0426 26.3282 26.0983 25.4655 26.0287 24.4246C25.8253 21.3799 25.7175 18.3286 25.5301 15.2829C25.3738 12.7398 25.1344 10.2025 24.983 7.65978C24.937 6.89569 24.9195 6.07605 25.1412 5.36167C25.4792 4.27414 26.5428 3.9163 27.59 4.34498C27.8778 4.46266 28.1792 4.56763 28.4839 4.61891C29.7463 4.83265 30.3397 5.5015 30.3611 6.80713C30.4045 9.41978 30.4421 12.0328 30.4731 14.6463C30.5123 17.9551 30.5428 21.2639 30.5765 24.573C30.5848 25.3936 30.6759 25.4809 31.5241 25.5315C33.3766 25.6419 35.2329 25.7168 37.0797 25.8919C37.9186 25.9713 38.7522 26.208 39.5636 26.4567C40.5145 26.7485 41.1942 27.7955 41.0611 28.6226C40.8833 29.7272 40.071 30.3916 38.894 30.3928C38.0794 30.3935 37.2648 30.3928 36.4498 30.3928C36.4498 30.4252 36.4498 30.4568 36.4498 30.4889H36.45Z" fill="white"/>
<path d="M40.1993 12.1252C39.4912 12.1272 38.5245 12.7854 37.8973 13.9323C37.3524 14.9291 37.5447 15.9032 38.1094 16.8582C39.4456 19.1183 40.797 19.4951 42.7575 18.1693C43.8087 17.4583 44.1804 16.518 43.9276 15.2929C43.868 15.0053 43.8165 14.7148 43.7434 14.4302C43.3306 12.824 42.4777 12.1531 40.1993 12.1253V12.1252ZM32.7393 14.6801C32.8607 12.0759 33.7346 9.89322 35.8757 8.3426C37.7328 6.99746 39.8058 6.63869 41.9483 7.35336C45.4758 8.53019 47.4463 11.0998 47.9992 14.783C48.3784 17.3062 47.6207 19.5039 45.9346 21.3537C44.0428 23.4294 40.5842 24.0392 37.9947 22.8157C35.3657 21.5733 33.7241 19.5062 33.0601 16.6599C32.9086 16.0109 32.8441 15.341 32.7393 14.6802V14.6801Z" fill="white"/>
<path d="M9.03271 14.5155C9.14902 13.6632 9.22702 12.3975 9.51394 11.1816C9.81831 9.89169 11.1403 9.35442 12.334 9.88808C12.5244 9.97339 12.718 10.053 12.9146 10.122C13.9551 10.4861 14.4006 11.1214 14.4343 12.2462C14.4906 14.1269 14.6477 15.9985 15.35 17.7629C15.643 18.4991 16.0691 19.1821 16.4479 19.8825C16.5262 20.0266 16.6613 20.1403 16.7729 20.2652C17.3069 20.8626 18.0029 21.0109 18.7207 20.8171C19.41 20.6312 19.6758 19.9779 19.7358 19.3465C19.8388 18.2609 19.8953 17.1593 19.8362 16.072C19.7812 15.0678 19.5344 14.0757 19.3984 13.0746C19.2935 12.3041 19.1928 11.5296 19.1566 10.7538C19.098 9.50742 19.6199 8.79146 20.6838 8.55416C21.636 8.34097 22.5802 8.89791 23.0134 9.93351C23.0781 10.0881 23.1397 10.2503 23.1642 10.4146C23.4644 12.4133 23.8225 14.4061 24.0342 16.4146C24.2666 18.6186 23.9202 20.745 22.7575 22.6787C21.4776 24.8061 19.1338 25.8511 16.683 25.5369C12.5707 25.0094 9.79892 21.611 9.26984 17.8234C9.13607 16.8686 9.12734 15.8957 9.03281 14.5156L9.03271 14.5155Z" fill="white"/>
<path d="M95.7988 14.8814C95.7988 15.6365 95.8293 16.3934 95.7859 17.146C95.7648 17.5137 95.6706 17.9081 95.4989 18.23C94.7663 19.6061 93.7525 20.775 92.4966 21.6612C90.496 23.0723 87.4597 23.1906 85.4795 21.3188C83.7259 19.661 82.8146 17.5937 82.7741 15.1966C82.7516 13.86 82.9693 12.5176 83.1104 11.181C83.1425 10.8751 83.2843 10.5738 83.4118 10.2869C83.9429 9.09145 84.9064 8.59285 85.9638 8.94865C87.3069 9.40061 87.9136 10.3839 87.6358 11.7114C87.4892 12.4108 87.19 13.0938 87.1469 13.7963C87.0899 14.7287 87.0958 15.6989 87.2896 16.6061C87.6338 18.2182 89.5469 18.7215 90.7941 17.6251C91.5042 16.9999 91.7013 16.1774 91.7508 15.3016C91.8503 13.5539 91.327 11.9347 90.7083 10.3331C90.5238 9.85526 90.3253 9.31901 90.3684 8.83023C90.4493 7.91389 91.1545 7.24225 91.9577 7.09787C92.7815 6.94987 93.6429 7.3819 94.0998 8.20932C94.9555 9.75836 95.3755 11.4537 95.6721 13.1834C95.7679 13.7419 95.7951 14.3126 95.8537 14.8775L95.7987 14.8814L95.7988 14.8814Z" fill="white"/>
<path d="M70.4043 31.2688C67.1446 31.2296 65.1718 29.9156 63.8152 27.5722C63.7525 27.4633 63.6976 27.3492 63.6306 27.2432C63.1534 26.4885 62.8782 25.6667 63.438 24.8837C64.1448 23.8952 64.9753 23.0405 66.3911 23.316C67.3375 23.5003 68.076 24.013 68.7583 24.6503C68.8346 24.7219 68.9078 24.797 68.9842 24.8689C69.9321 25.7572 70.6131 25.7627 71.6265 24.9359C72.2737 24.4082 72.9281 23.883 73.6187 23.417C74.7652 22.6426 75.8232 23.0578 76.6932 23.8598C77.4558 24.563 77.3548 25.7323 76.5641 26.6473C75.8692 27.4519 75.2067 28.2872 74.4883 29.0698C73.2496 30.4195 71.7596 31.2694 70.4043 31.2688Z" fill="white"/>
<path d="M121.232 10.3753C121.05 12.4403 120.872 14.4534 120.695 16.4662C120.592 17.6397 120.492 18.8135 120.39 19.987C120.245 21.654 118.624 22.4661 117.222 21.575C116.633 21.1998 116.454 20.5913 116.368 19.9577C116.173 18.5195 116.023 17.0748 115.829 15.6365C115.654 14.3434 115.438 13.0561 115.257 11.7643C115.205 11.3908 115.18 11.0081 115.195 10.6316C115.24 9.52341 115.958 8.80847 117.058 8.71268C117.296 8.69209 117.583 8.65648 117.75 8.51294C118.446 7.91437 119.197 7.63201 120.051 8.0823C120.92 8.54113 121.212 9.35872 121.232 10.3016C121.233 10.3442 121.232 10.3863 121.232 10.3754L121.232 10.3753Z" fill="white"/>
<path d="M83.1575 26.1394C83.3048 25.7734 83.4713 25.4137 83.5959 25.0401C83.9666 23.927 84.8036 23.3349 85.8617 23.0695C87.2733 22.7157 88.559 23.9852 88.2808 25.4522C87.9101 27.41 87.0158 29.1604 85.8759 30.7497C84.7974 32.2525 82.4351 32.8241 80.738 32.1672C79.3541 31.6316 78.6202 30.4755 78.8873 28.979C79.0502 28.0637 79.3438 27.1424 79.7447 26.3052C80.4585 24.8142 81.5464 24.6829 82.711 25.8486C82.813 25.9506 82.8723 26.0949 82.9515 26.2198L83.1575 26.1394V26.1394Z" fill="white"/>
<path d="M119.359 6.01056C117.934 6.00898 116.855 4.8851 116.858 3.40477C116.861 1.96589 118.228 0.516531 119.573 0.525062C121.039 0.533871 122.368 1.82939 122.347 3.22766C122.326 4.62175 120.833 6.01195 119.359 6.01056Z" fill="white"/>
<path d="M92.2458 28.1442C90.3426 27.8962 89.0796 26.6397 90.0437 24.6388C90.5227 23.6459 93.1206 23.1116 93.9011 23.847C95.1047 24.98 94.7676 27.1378 93.2692 27.8381C92.9 28.0106 92.4814 28.0759 92.2457 28.1443L92.2458 28.1442Z" fill="white"/>
<path d="M90.8894 30.0198C90.8796 30.7136 90.3163 31.3299 89.6939 31.3276C89.0681 31.3254 88.495 30.6934 88.507 30.0175C88.5187 29.361 89.139 28.711 89.7321 28.7339C90.3101 28.7565 90.8977 29.4098 90.8893 30.0198H90.8894Z" fill="white"/>
<path d="M76.3527 28.0819C76.9568 28.0927 77.4946 28.6607 77.491 29.2842C77.4872 29.928 76.9481 30.4735 76.3339 30.4555C75.7418 30.4378 75.1162 29.7891 75.1301 29.2072C75.1443 28.6211 75.7417 28.0712 76.3527 28.0819H76.3527Z" fill="white"/>
</svg>
